<?xml version="1.0" encoding="UTF-8"?>
<svg version="1.1" xmlns="http://www.w3.org/2000/svg" width="500" height="500">
<path d="M0 0 C5.24051594 2.94624282 8.41625935 6.51986596 10.75 12.0625 C12.51285639 19.01376325 12.27211649 25.72269032 8.75 32.0625 C5.67369075 35.93939093 2.40058971 39.20764052 -2.25 41.0625 C-3.57 41.0625 -4.89 41.0625 -6.25 41.0625 C-6.25 67.7925 -6.25 94.5225 -6.25 122.0625 C4.97 122.0625 16.19 122.0625 27.75 122.0625 C27.75 112.8225 27.75 103.5825 27.75 94.0625 C25.44 93.4025 23.13 92.7425 20.75 92.0625 C15.28795401 88.31403707 12.31456123 84.23466328 10 78.0625 C9.10148445 70.87437558 10.0083679 65.11429257 14.07421875 59.10546875 C17.9554475 54.26666651 21.79467896 51.4739136 28.1171875 50.59375 C36.90709632 50.51544346 41.87235898 51.49833206 48.26953125 57.484375 C52.41851266 61.93227438 53.52528309 66.59061399 54.0625 72.5 C53.43539335 79.64901584 50.93153794 84.99610734 45.75 90.0625 C39.29037267 94.0625 39.29037267 94.0625 35.75 94.0625 C35.75 103.3025 35.75 112.5425 35.75 122.0625 C46.64 122.0625 57.53 122.0625 68.75 122.0625 C68.71519531 118.19660156 68.68039062 114.33070313 68.64453125 110.34765625 C68.62110442 106.58456154 68.60290557 102.8214751 68.58520508 99.05834961 C68.57016116 96.45219255 68.54972105 93.84606063 68.52368164 91.23999023 C68.48710576 87.48414895 68.47022905 83.72864376 68.45703125 79.97265625 C68.44154739 78.81604996 68.42606354 77.65944366 68.41011047 76.4677887 C68.40824648 67.41519807 69.48669842 59.36257023 75.91479492 52.55249023 C82.97547046 46.81997689 91.65941478 46.4289902 100.375 46.3125 C101.47457031 46.28285156 102.57414062 46.25320312 103.70703125 46.22265625 C106.38809105 46.15271556 109.06831979 46.09964771 111.75 46.0625 C112.00612061 45.51762939 112.26224121 44.97275879 112.52612305 44.41137695 C113.04493042 43.33569458 113.04493042 43.33569458 113.57421875 42.23828125 C113.91283936 41.52841064 114.25145996 40.81854004 114.6003418 40.0871582 C117.66811639 34.68451332 123.02202981 31.90710057 128.75 30.0625 C134.79965874 29.2653428 140.43256609 29.98227914 145.75 33.0625 C151.50406351 37.64989315 154.08127042 41.66312463 155.5 48.875 C156.23108042 55.93324918 154.15304083 61.52724867 149.75 67.0625 C145.30915348 71.50334652 139.72682322 73.88695263 133.44921875 74.1640625 C126.62769265 73.66923677 120.50235806 71.34253924 115.875 66.1875 C113.7995977 63.1354378 112.83074204 60.55787291 111.75 57.0625 C108.39590806 57.00390143 105.04194983 56.96870418 101.6875 56.9375 C100.27307617 56.91236328 100.27307617 56.91236328 98.83007812 56.88671875 C93.48994702 56.84950529 88.74454659 56.93743177 83.75 59.0625 C80.21274173 62.68178796 79.24715378 65.0197966 79.20410156 70.04614258 C79.18438293 71.22698929 79.16466431 72.407836 79.14434814 73.62446594 C79.14311951 74.88921249 79.14189087 76.15395905 79.140625 77.45703125 C79.12408875 78.75952316 79.10755249 80.06201508 79.09051514 81.40397644 C79.0469265 84.85465383 79.02686188 88.30507742 79.01177979 91.75598145 C78.99217763 95.28213455 78.95021131 98.80801479 78.91015625 102.33398438 C78.83494682 109.2433865 78.7845995 116.15277841 78.75 123.0625 C80.00554687 123.19398438 81.26109375 123.32546875 82.5546875 123.4609375 C88.41466313 124.07461051 92.0166197 127.09297772 95.9375 131.3125 C101.87282597 138.66544976 101.75 144.19960119 101.75 154.0625 C123.53 154.0625 145.31 154.0625 167.75 154.0625 C168.08 152.4125 168.41 150.7625 168.75 149.0625 C171.89984046 143.46278363 175.73350033 139.43959767 181.625 136.75 C189.49022701 135.01965006 195.75810394 136.06379021 202.75 140.0625 C207.41634793 144.11434944 210.34854379 148.67813081 211.0859375 154.89453125 C211.17265998 161.51145639 210.80640747 166.66232907 206.75 172.0625 C201.79120469 177.02129531 196.45850785 180.13042568 189.375 180.5 C182.58846366 180.22252662 176.94103797 177.73803607 172.3125 172.75 C169.32896257 169.23945596 169.17315707 167.04354974 167.75 162.0625 C145.97 162.0625 124.19 162.0625 101.75 162.0625 C101.75 173.6125 101.75 185.1625 101.75 197.0625 C106.37 197.0625 110.99 197.0625 115.75 197.0625 C116.08 195.0825 116.41 193.1025 116.75 191.0625 C120.19475264 185.6763157 124.51044208 181.21721683 130.75 179.42578125 C138.89379279 177.94653764 145.11628775 179.68661122 152 184.1875 C156.66147781 189.06086316 158.91947579 194.24423248 159.3125 201 C159.0262259 206.75232024 157.19192828 211.4547573 153.75 216.0625 C148.02917725 221.08094415 142.62878501 223.47865521 134.96484375 223.3359375 C128.07604053 222.48546797 123.19364325 219.17418954 118.94140625 213.84375 C116.88938818 210.77581479 115.75 208.81121851 115.75 205.0625 C111.13 205.0625 106.51 205.0625 101.75 205.0625 C101.75 216.2825 101.75 227.5025 101.75 239.0625 C123.53 239.0625 145.31 239.0625 167.75 239.0625 C168.41 237.0825 169.07 235.1025 169.75 233.0625 C173.35363193 227.63328145 177.34801367 223.76969636 183.75 222.0625 C190.87424351 221.21869904 196.89538197 221.68114471 202.75 226.0625 C208.17982954 231.16581418 211.0075247 236.18275011 211.25 243.75 C211.13429048 250.45288746 208.96900527 254.92970097 204.75 260.0625 C200.12166991 264.27007281 194.88350606 265.59854341 188.75 266.0625 C181.91082552 265.72336738 176.49413267 262.96726922 171.75 258.0625 C169.71179548 254.9736154 167.75 251.83459355 167.75 248.0625 C145.97 248.0625 124.19 248.0625 101.75 248.0625 C101.75 251.6925 101.75 255.3225 101.75 259.0625 C99.30016153 267.63693465 95.6277376 272.73771913 87.81640625 277.15625 C84.56346411 278.66729409 82.38256217 279.0625 78.75 279.0625 C78.78808885 286.66906361 78.84749662 294.27520943 78.93390274 301.88137341 C78.97336284 305.41352853 79.00555804 308.94543492 79.02099609 312.4777832 C79.03907841 316.54158348 79.08903519 320.60445471 79.140625 324.66796875 C79.14246796 326.56508858 79.14246796 326.56508858 79.14434814 328.50053406 C79.16406677 329.68138077 79.1837854 330.86222748 79.20410156 332.07885742 C79.21298401 333.11588303 79.22186646 334.15290863 79.23101807 335.22135925 C79.88559663 338.80481698 81.22343059 340.47962617 83.75 343.0625 C89.54021034 345.4670969 95.48022556 345.4838437 101.6875 345.6875 C102.65751953 345.72617187 103.62753906 345.76484375 104.62695312 345.8046875 C107.00112076 345.89825076 109.37529492 345.98399208 111.75 346.0625 C112.02714844 344.98355469 112.30429687 343.90460938 112.58984375 342.79296875 C114.29638414 337.30560825 116.97086478 333.83863905 121.828125 330.734375 C128.48860451 327.42742363 134.7514719 326.96250039 141.875 329.0625 C147.8608412 331.56458162 152.22908623 337.19964091 154.75 343.0625 C156.20831663 350.35408315 155.59443239 355.70299814 152 362.25 C148.01321234 367.23348458 144.06025185 370.67424459 137.75 372.0625 C130.16453557 372.674231 124.8084858 371.12109621 118.5 366.875 C115.16821854 363.46749623 111.75 359.05098318 111.75 354.0625 C110.97398437 354.08344727 110.19796875 354.10439453 109.3984375 354.12597656 C105.84909252 354.20962759 102.29995565 354.26131629 98.75 354.3125 C97.52925781 354.34601563 96.30851562 354.37953125 95.05078125 354.4140625 C87.28872179 354.49797666 81.12296947 354.25320354 75.23876953 348.61425781 C67.87463688 340.23501916 68.60456025 331.16739615 68.65234375 320.56640625 C68.65446617 318.78338356 68.65446617 318.78338356 68.65663147 316.96434021 C68.66220886 313.18453406 68.67475725 309.40478811 68.6875 305.625 C68.69251792 303.0553394 68.69708032 300.48567787 68.70117188 297.91601562 C68.71131806 291.63146881 68.73089802 285.34705145 68.75 279.0625 C57.86 279.0625 46.97 279.0625 35.75 279.0625 C35.75 288.6325 35.75 298.2025 35.75 308.0625 C40.205 309.5475 40.205 309.5475 44.75 311.0625 C50.40710512 316.4053215 53.18876244 321.73295309 54.1875 329.4375 C53.25958647 337.12592641 50.73289209 343.03439123 44.62890625 347.90625 C38.56968256 351.63500304 32.69828783 351.78440003 25.75 351.0625 C19.86645741 349.36495329 16.17337905 346.14866316 12.75 341.0625 C9.82529492 335.27205566 8.68765736 330.02731451 10.40625 323.61328125 C12.47001959 317.66215256 15.14474722 313.18708536 20.75 310.0625 C23.06 309.4025 25.37 308.7425 27.75 308.0625 C27.75 298.4925 27.75 288.9225 27.75 279.0625 C16.53 279.0625 5.31 279.0625 -6.25 279.0625 C-6.25 306.1225 -6.25 333.1825 -6.25 361.0625 C-4.27 361.3925 -2.29 361.7225 -0.25 362.0625 C4.25338753 364.21629404 7.76830928 367.4858648 10.02734375 371.984375 C12.33216213 378.61228516 12.47625664 385.45389725 9.88671875 391.9921875 C6.71085474 397.77640718 2.08296938 401.67524938 -4.21484375 403.62890625 C-11.98885015 405.28517249 -18.17309681 403.43279255 -24.9375 399.5 C-29.56065858 394.62694096 -32.50145456 388.82900875 -32.875 382.0625 C-32.52547434 376.36254305 -30.66367717 371.62976462 -27.25 367.0625 C-23.59613015 363.85016609 -20.22517571 361.0625 -15.25 361.0625 C-15.25 334.0025 -15.25 306.9425 -15.25 279.0625 C-26.14 279.0625 -37.03 279.0625 -48.25 279.0625 C-48.21519531 283.32414062 -48.18039063 287.58578125 -48.14453125 291.9765625 C-48.12522517 295.38422889 -48.10896146 298.79187973 -48.09474945 302.1995697 C-48.07893705 305.79152482 -48.05782219 309.38326601 -48.02368164 312.97509766 C-47.99097871 316.43752525 -47.97312414 319.89974596 -47.96536827 323.36231613 C-47.95716407 325.3198708 -47.93376207 327.27734276 -47.91011047 329.23477173 C-47.90977058 331.03595963 -47.90977058 331.03595963 -47.90942383 332.87353516 C-47.89943108 334.45238998 -47.89943108 334.45238998 -47.88923645 336.06314087 C-48.55148648 341.56903436 -51.42634588 346.13550387 -55.25 350.0625 C-62.39261628 354.65357235 -68.90292422 354.71554347 -77.25 354.8125 C-79.12751953 354.85697266 -79.12751953 354.85697266 -81.04296875 354.90234375 C-84.11204241 354.97262788 -87.18037452 355.02553192 -90.25 355.0625 C-90.55800537 355.74304443 -90.86601074 356.42358887 -91.18334961 357.12475586 C-95.39720803 366.05261251 -95.39720803 366.05261251 -99.8125 368.625 C-100.55628906 369.08003906 -101.30007812 369.53507812 -102.06640625 370.00390625 C-107.31695673 372.54934307 -112.94406242 372.9910713 -118.55859375 371.4140625 C-125.62299857 368.62642215 -130.1943676 364.00834281 -133.25 357.0625 C-134.70831663 349.77091685 -134.09443239 344.42200186 -130.5 337.875 C-125.94453874 332.18067343 -121.49458088 328.81028225 -114.22265625 327.7734375 C-107.72473551 327.33948146 -102.47675105 329.20887847 -97.25 333.0625 C-94.07517681 336.7321843 -91.7840168 340.46044961 -90.25 345.0625 C-86.89590806 345.12109857 -83.54194983 345.15629582 -80.1875 345.1875 C-79.24455078 345.20425781 -78.30160156 345.22101563 -77.33007812 345.23828125 C-71.98994702 345.27549471 -67.24454659 345.18756823 -62.25 343.0625 C-58.71274173 339.44321204 -57.74715378 337.1052034 -57.70410156 332.07885742 C-57.68438293 330.89801071 -57.66466431 329.717164 -57.64434814 328.50053406 C-57.64311951 327.23578751 -57.64189087 325.97104095 -57.640625 324.66796875 C-57.62408875 323.36547684 -57.60755249 322.06298492 -57.59051514 320.72102356 C-57.5469265 317.27034617 -57.52686188 313.81992258 -57.51177979 310.36901855 C-57.49217763 306.84286545 -57.45021131 303.31698521 -57.41015625 299.79101562 C-57.33494682 292.8816135 -57.2845995 285.97222159 -57.25 279.0625 C-58.91264893 278.84533325 -58.91264893 278.84533325 -60.60888672 278.6237793 C-66.7668193 277.67453114 -70.71806901 274.59443099 -75.0625 270.25 C-80.27497185 262.65468387 -80.25 257.89848348 -80.25 248.0625 C-102.03 248.0625 -123.81 248.0625 -146.25 248.0625 C-146.91 250.3725 -147.57 252.6825 -148.25 255.0625 C-152.43885842 261.34578763 -157.42971159 264.09006295 -164.6875 265.9375 C-172.0832077 266.19699852 -177.7770089 264.58074211 -183.51953125 259.8125 C-188.14680437 255.13300032 -189.48717559 250.58383072 -189.75 244.0625 C-189.49733938 237.59112793 -188.04020193 233.08915972 -183.63671875 228.3125 C-178.20097431 223.29859825 -172.89977768 221.58981413 -165.546875 221.82421875 C-158.34415668 222.57143953 -154.36405763 225.3924003 -149.6953125 230.83203125 C-148.25 233.0625 -148.25 233.0625 -146.25 239.0625 C-124.47 239.0625 -102.69 239.0625 -80.25 239.0625 C-80.25 227.8425 -80.25 216.6225 -80.25 205.0625 C-84.87 205.0625 -89.49 205.0625 -94.25 205.0625 C-94.745 208.0325 -94.745 208.0325 -95.25 211.0625 C-98.69338849 216.44655133 -103.0123633 220.92131331 -109.2578125 222.6953125 C-116.71013233 224.06887733 -122.67348101 222.81265548 -129.25 219.0625 C-134.18250587 214.87088493 -136.79066839 210.25390098 -137.5 203.78125 C-137.84068468 196.88238515 -136.50354306 190.82235811 -131.89453125 185.49609375 C-126.53047929 180.67851357 -120.62840955 178.47491316 -113.51171875 178.7890625 C-106.23334645 179.66900388 -102.34574973 182.41437417 -97.6953125 188.02734375 C-95.464693 191.16829716 -94.25 193.15991102 -94.25 197.0625 C-89.63 197.0625 -85.01 197.0625 -80.25 197.0625 C-80.25 185.5125 -80.25 173.9625 -80.25 162.0625 C-102.03 162.0625 -123.81 162.0625 -146.25 162.0625 C-146.58 163.7125 -146.91 165.3625 -147.25 167.0625 C-150.38952429 172.64387651 -154.21588988 176.64658195 -160.0625 179.375 C-167.88395235 181.06197992 -174.41116379 180.45889471 -181.25 176.0625 C-185.85512277 171.91001751 -188.84306969 167.49301712 -189.5859375 161.23046875 C-189.6727458 154.60699546 -189.30029573 149.47128001 -185.25 144.0625 C-180.21191673 138.90991484 -174.92413098 136.53877624 -167.875 135.625 C-160.27881025 136.54178152 -154.34024783 139.06461525 -149.40625 144.98828125 C-148.25 147.0625 -148.25 147.0625 -146.25 154.0625 C-124.47 154.0625 -102.69 154.0625 -80.25 154.0625 C-80.25 150.4325 -80.25 146.8025 -80.25 143.0625 C-77.8935282 135.14475474 -74.65728028 129.29072703 -67.41796875 124.96875 C-63.91678232 123.32113286 -61.05710515 122.95205497 -57.25 123.0625 C-57.28808885 115.45593639 -57.34749662 107.84979057 -57.43390274 100.24362659 C-57.47336284 96.71147147 -57.50555804 93.17956508 -57.52099609 89.6472168 C-57.53907841 85.58341652 -57.58903519 81.52054529 -57.640625 77.45703125 C-57.64246796 75.55991142 -57.64246796 75.55991142 -57.64434814 73.62446594 C-57.66406677 72.44361923 -57.6837854 71.26277252 -57.70410156 70.04614258 C-57.71298401 69.00911697 -57.72186646 67.97209137 -57.73101807 66.90364075 C-58.3854575 63.32094466 -59.7252684 61.64583365 -62.25 59.0625 C-68.17385395 56.57707351 -74.33203446 56.63597908 -80.6875 56.4375 C-81.70521484 56.39882812 -82.72292969 56.36015625 -83.77148438 56.3203125 C-86.26414936 56.22669128 -88.7568195 56.14096007 -91.25 56.0625 C-91.38019531 56.98804688 -91.51039063 57.91359375 -91.64453125 58.8671875 C-92.61842271 64.00682112 -94.99225193 67.0334334 -99 70.3125 C-105.5774698 73.85421451 -111.93474874 75.04132015 -119.25 73.0625 C-125.57612972 70.16255735 -130.77580425 65.72379624 -133.25 59.0625 C-134.46839891 53.07203867 -134.61709165 47.79545616 -132.25 42.0625 C-128.18045749 36.05757095 -123.45794552 31.6213348 -116.25 30.0625 C-108.8966973 29.06107745 -103.39427904 31.01059707 -97.25 35.0625 C-93.78050014 38.61873735 -91.25 42.01530411 -91.25 47.0625 C-90.54504395 47.04155273 -89.84008789 47.02060547 -89.11376953 46.99902344 C-85.86766269 46.91501281 -82.62178561 46.86357303 -79.375 46.8125 C-77.71210938 46.76222656 -77.71210938 46.76222656 -76.015625 46.7109375 C-68.08882387 46.61768102 -60.47666954 47.31325804 -54.30908203 52.78417969 C-49.56327357 57.81684723 -47.9928815 63.18236301 -48.02294922 70.06787109 C-48.02317581 71.80899673 -48.02317581 71.80899673 -48.02340698 73.58529663 C-48.03372955 74.82300812 -48.04405212 76.0607196 -48.0546875 77.3359375 C-48.0575174 78.61481842 -48.06034729 79.89369934 -48.06326294 81.21133423 C-48.0725398 84.59470099 -48.09047817 87.97779326 -48.1126709 91.36108398 C-48.13320959 94.82012531 -48.14239168 98.27919594 -48.15234375 101.73828125 C-48.17266437 108.51317441 -48.21181954 115.28758983 -48.25 122.0625 C-37.36 122.0625 -26.47 122.0625 -15.25 122.0625 C-15.25 95.3325 -15.25 68.6025 -15.25 41.0625 C-16.9 40.7325 -18.55 40.4025 -20.25 40.0625 C-26.58054013 36.76534368 -30.02842383 31.72722852 -32.25 25.0625 C-33.22566513 17.46625003 -31.87409096 11.23858471 -27.25 5.0625 C-19.13428233 -1.94459074 -10.09028072 -4.44216594 0 0 Z M-28.25 162.0625 C-30.43634096 165.54154269 -32.16214513 168.99811251 -33.71777344 172.79907227 C-34.18125183 173.92696671 -34.64473022 175.05486115 -35.12225342 176.2169342 C-35.8583786 178.02961037 -35.8583786 178.02961037 -36.609375 179.87890625 C-37.12310726 181.14014847 -37.63688153 182.40137358 -38.1506958 183.6625824 C-39.22293997 186.2981122 -40.29143498 188.93512899 -41.35791016 191.57299805 C-42.72499268 194.95221151 -44.10631112 198.32540912 -45.49108505 201.69740391 C-46.55554522 204.2962938 -47.60990441 206.89919344 -48.66150665 209.50330925 C-49.41181014 211.35407931 -50.17260438 213.20058518 -50.93353271 215.04701233 C-51.38440247 216.17175461 -51.83527222 217.29649689 -52.29980469 218.45532227 C-52.90245148 219.93827538 -52.90245148 219.93827538 -53.51727295 221.45118713 C-54.28215818 224.17710621 -54.23488534 225.45009864 -53.25 228.0625 C-51.6 228.3925 -49.95 228.7225 -48.25 229.0625 C-42.60654526 219.02823083 -42.60654526 219.02823083 -40.25 208.0625 C-31.34 208.0625 -22.43 208.0625 -13.25 208.0625 C-12.26 211.0325 -11.27 214.0025 -10.25 217.0625 C-9.58314781 218.88269797 -8.89997756 220.69717216 -8.1875 222.5 C-7.86652344 223.32371094 -7.54554688 224.14742187 -7.21484375 224.99609375 C-6.31932816 227.22087088 -6.31932816 227.22087088 -4.25 229.0625 C-1.64719432 228.74208603 -1.64719432 228.74208603 0.75 228.0625 C0.23465863 221.03971069 -2.43775309 214.97897106 -5.0625 208.5 C-5.8046184 206.65259624 -6.54672281 204.80518676 -7.28814697 202.95750427 C-7.80575777 201.6686337 -8.32445114 200.3801974 -8.84417725 199.09217834 C-10.49861606 194.98097846 -12.10207235 190.85351014 -13.66929626 186.70829773 C-14.72039063 183.9314593 -15.78670187 181.16058613 -16.85458374 178.39016724 C-17.36692945 177.0500316 -17.87253015 175.70729722 -18.37124634 174.36203003 C-19.07024848 172.48051052 -19.79625444 170.60908976 -20.5234375 168.73828125 C-21.13324463 167.1282019 -21.13324463 167.1282019 -21.75537109 165.4855957 C-23.04341986 162.8094135 -23.04341986 162.8094135 -25.92041016 162.20776367 C-26.6891748 162.15982666 -27.45793945 162.11188965 -28.25 162.0625 Z M16.75 162.0625 C16.42 163.7125 16.09 165.3625 15.75 167.0625 C16.41 167.7225 17.07 168.3825 17.75 169.0625 C23.69 169.0625 29.63 169.0625 35.75 169.0625 C35.75 186.5525 35.75 204.0425 35.75 222.0625 C30.14 222.0625 24.53 222.0625 18.75 222.0625 C17.76 222.7225 16.77 223.3825 15.75 224.0625 C16.08 225.7125 16.41 227.3625 16.75 229.0625 C31.93 229.0625 47.11 229.0625 62.75 229.0625 C63.08 227.4125 63.41 225.7625 63.75 224.0625 C58.85477433 220.39839941 58.85477433 220.39839941 42.75 222.0625 C42.75 204.5725 42.75 187.0825 42.75 169.0625 C49.02 169.0625 55.29 169.0625 61.75 169.0625 C62.41 168.4025 63.07 167.7425 63.75 167.0625 C63.255 164.5875 63.255 164.5875 62.75 162.0625 C47.57 162.0625 32.39 162.0625 16.75 162.0625 Z " fill="#FFFFFF" transform="translate(239.25,48.9375)"/>
<path d="M0 0 C2.59390243 2.29210343 3.77766187 4.39146755 5.04296875 7.59765625 C5.39423828 8.48130859 5.74550781 9.36496094 6.10742188 10.27539062 C6.64206055 11.65500977 6.64206055 11.65500977 7.1875 13.0625 C7.73954102 14.44791992 7.73954102 14.44791992 8.30273438 15.86132812 C11 22.71208256 11 22.71208256 11 25 C4.4 25 -2.2 25 -9 25 C-8.28653598 20.71921589 -7.78470648 18.04074836 -6.15234375 14.2578125 C-5.79462891 13.41992188 -5.43691406 12.58203125 -5.06835938 11.71875 C-4.50858398 10.43484375 -4.50858398 10.43484375 -3.9375 9.125 C-3.56044922 8.24585938 -3.18339844 7.36671875 -2.79492188 6.4609375 C-1.86913928 4.30468436 -0.93738089 2.15123021 0 0 Z " fill="#FFFFFF" transform="translate(212,225)"/>
</svg>
