<?xml version="1.0" encoding="UTF-8"?>
<svg version="1.1" xmlns="http://www.w3.org/2000/svg" width="290" height="267">
<path d="M0 0 C95.7 0 191.4 0 290 0 C290 88.11 290 176.22 290 267 C194.3 267 98.6 267 0 267 C0 178.89 0 90.78 0 0 Z " fill="#F3F3F5" transform="translate(0,0)"/>
<path d="M0 0 C3.71168084 0.96768822 5.55692692 2.80821076 8.1875 5.5703125 C9.80210384 8.79952019 9.78218691 12.07975889 9.1875 15.5703125 C7.77119249 18.08584374 6.31866783 19.54062885 4.1875 21.5703125 C3.5275 21.5703125 2.8675 21.5703125 2.1875 21.5703125 C2.1875 32.7903125 2.1875 44.0103125 2.1875 55.5703125 C6.1475 55.5703125 10.1075 55.5703125 14.1875 55.5703125 C14.001875 54.1265625 13.81625 52.6828125 13.625 51.1953125 C13.58160508 46.11087379 15.11220209 43.85500471 18.5 40.1328125 C20.59210691 38.03396772 22.66435774 35.99875793 24.95703125 34.12109375 C26.74410307 31.86881593 26.52365417 30.03105786 26.5625 27.1953125 C26.82270518 23.00988456 26.95218652 21.87199644 29.625 18.4453125 C33.71904873 15.44966709 36.07479399 15.14425367 41.1875 15.5703125 C45.19341167 17.68664319 47.54273273 19.34642661 49.1875 23.5703125 C49.60826681 28.4704926 48.86137466 31.7409283 45.75 35.5703125 C42.93406922 37.59321265 40.85472199 37.73090524 37.4375 37.7578125 C31.26995175 38.06665786 28.29536923 41.50149034 24.12109375 45.734375 C21.83912726 49.08125918 21.6411784 51.59441872 21.1875 55.5703125 C22.22156982 55.54412842 23.25563965 55.51794434 24.32104492 55.4909668 C28.16929359 55.40024827 32.0174484 55.34298591 35.86645508 55.2956543 C37.53002839 55.27055903 39.19349196 55.23647454 40.85668945 55.19311523 C43.25239153 55.1322379 45.64663251 55.10405481 48.04296875 55.08203125 C49.15263252 55.04332161 49.15263252 55.04332161 50.28471375 55.00382996 C54.04011582 55.0018049 56.03796286 55.46882336 59.16601562 57.59179688 C61.72013077 61.35510663 61.82889057 64.32575974 61.67578125 68.71484375 C61.66516914 69.869524 61.66516914 69.869524 61.65434265 71.04753113 C61.62646925 73.49363553 61.56375137 75.93740634 61.5 78.3828125 C61.47490768 80.04619077 61.45209613 81.70960512 61.43164062 83.37304688 C61.37666671 87.43969407 61.29044927 91.50460839 61.1875 95.5703125 C63.08242188 95.13138672 63.08242188 95.13138672 65.015625 94.68359375 C65.7262207 94.51899658 66.43681641 94.35439941 67.16894531 94.18481445 C72.05313127 92.69793781 75.44752972 88.71168959 78.1875 84.5703125 C78.59326265 81.86387562 78.45873006 79.58932304 78.1796875 76.875 C78.18911071 74.09515322 78.79879693 73.11417788 80.5625 71.0078125 C84.05296412 67.76666725 86.18671069 67.08366644 91.01171875 67.171875 C94.39681752 67.79176741 96.44730077 69.29465251 98.8984375 71.65625 C100.87055237 74.58454177 100.90798847 76.99840951 100.6171875 80.453125 C100.02350915 83.37834014 99.11964074 85.29314663 97.1875 87.5703125 C94.15829699 89.47073881 92.58391371 89.62201213 89.125 89.0078125 C85.39453909 88.87238323 84.30778624 89.47068484 81.3671875 91.90625 C79.44461406 93.83207158 77.66683631 95.82706469 75.86328125 97.87109375 C72.18644972 101.5801311 69.05224505 103.46671555 63.8125 103.7578125 C62.94625 103.6959375 62.08 103.6340625 61.1875 103.5703125 C61.1875 107.2003125 61.1875 110.8303125 61.1875 114.5703125 C72.0775 114.5703125 82.9675 114.5703125 94.1875 114.5703125 C95.1775 112.5903125 95.1775 112.5903125 96.1875 110.5703125 C98.80815805 107.74806536 100.2076506 107.5683934 104.125 107.1953125 C107.8595415 107.34135602 110.21278159 108.20803612 113.1875 110.5703125 C115.88407104 114.61516907 115.7297677 117.82338446 115.1875 122.5703125 C113.9546112 125.46760118 112.9629988 126.96714677 110.5 128.8828125 C107.03517407 129.91289588 103.73633321 130.1617847 100.1875 129.5703125 C97.3774654 127.77667339 95.67809532 126.55150315 94.1875 123.5703125 C83.2975 123.2403125 72.4075 122.9103125 61.1875 122.5703125 C61.1875 126.5303125 61.1875 130.4903125 61.1875 134.5703125 C62.38375 134.4878125 63.58 134.4053125 64.8125 134.3203125 C69.41490565 134.36061378 71.59609602 135.56526019 75.1875 138.5703125 C75.86554688 139.31925781 76.54359375 140.06820312 77.2421875 140.83984375 C81.20026769 145.57431746 81.20026769 145.57431746 86.58984375 148.046875 C88.12144333 147.98061612 89.65193197 147.86676239 91.17578125 147.69921875 C94.22523899 147.5038166 95.88182002 148.68384706 98.1875 150.5703125 C100.86871076 154.59212865 101.00094335 157.84267641 100.1875 162.5703125 C98.47672026 165.6420843 96.37778693 167.97516904 93.1875 169.5703125 C88.25371607 170.06369089 86.11830765 170.09494954 81.75 167.6328125 C78.80001722 164.10722333 78.45518951 162.21111468 78.29296875 157.75390625 C78.06777177 153.0914948 76.89792904 150.81431578 73.625 147.4453125 C72.98433594 146.76210937 72.34367188 146.07890625 71.68359375 145.375 C69.24940499 143.6150701 67.88519145 143.11616266 65.03149414 142.45751953 C63.76297607 142.16474121 62.49445801 141.87196289 61.1875 141.5703125 C61.22677612 143.12141724 61.22677612 143.12141724 61.2668457 144.70385742 C61.35756423 148.55210609 61.41482659 152.4002609 61.4621582 156.24926758 C61.48725347 157.91284089 61.52133796 159.57630446 61.56469727 161.23950195 C61.6255746 163.63520403 61.65375769 166.02944501 61.67578125 168.42578125 C61.70158768 169.1655571 61.7273941 169.90533295 61.75398254 170.66752625 C61.7560076 174.42292832 61.28898914 176.42077536 59.16601562 179.54882812 C55.40270587 182.10294327 52.43205276 182.21170307 48.04296875 182.05859375 C47.27318192 182.05151901 46.50339508 182.04444427 45.71028137 182.03715515 C43.26417697 182.00928175 40.82040616 181.94656387 38.375 181.8828125 C36.71162173 181.85772018 35.04820738 181.83490863 33.38476562 181.81445312 C29.31811843 181.75947921 25.25320411 181.67326177 21.1875 181.5703125 C22.01366981 188.81060302 24.13381934 191.57530515 29.35546875 196.54296875 C33.00854546 199.1580678 35.52998005 199.38882044 39.91796875 199.375 C43.82722349 199.71142468 45.54947331 201.79700239 48.1875 204.5703125 C49.7422669 207.67984629 49.47394437 210.13298011 49.1875 213.5703125 C47.5593054 216.65225228 46.15740938 218.83451917 43.375 220.9453125 C39.06400795 222.17702451 35.47915372 222.14438082 31.375 220.3203125 C29.0222483 218.43811114 28.28252543 217.33512783 27.1875 214.5703125 C27.14424219 213.02925284 27.14733991 211.486456 27.1875 209.9453125 C26.73250724 203.66826947 23.064746 200.79855573 18.53515625 196.796875 C15.62498093 194.03680856 14.32381977 192.21705534 13.9921875 188.2109375 C14.05729167 185.99739583 14.12239583 183.78385417 14.1875 181.5703125 C10.2275 181.5703125 6.2675 181.5703125 2.1875 181.5703125 C2.1875 192.7903125 2.1875 204.0103125 2.1875 215.5703125 C4.1675 216.5603125 4.1675 216.5603125 6.1875 217.5703125 C8.95676565 220.14177346 9.19457243 221.62512383 9.6875 225.4453125 C9.52710164 230.21270834 7.53029539 232.30710748 4.1875 235.5703125 C0.95890153 237.18461173 -2.32243653 237.16601907 -5.8125 236.5703125 C-8.83758145 234.83429145 -11.23040069 232.73451113 -12.8125 229.5703125 C-13.29081743 224.78713817 -13.52894478 221.88915605 -10.4375 218.0703125 C-7.8125 215.5703125 -7.8125 215.5703125 -5.8125 215.5703125 C-5.8125 204.3503125 -5.8125 193.1303125 -5.8125 181.5703125 C-9.7725 181.5703125 -13.7325 181.5703125 -17.8125 181.5703125 C-17.73 182.9315625 -17.6475 184.2928125 -17.5625 185.6953125 C-17.59256427 190.51311233 -18.62886884 192.82954589 -21.8125 196.5703125 C-22.47636719 197.16199219 -23.14023438 197.75367188 -23.82421875 198.36328125 C-27.85495151 201.98876978 -30.24400176 204.18364266 -30.625 209.7578125 C-30.645625 210.59699219 -30.66625 211.43617188 -30.6875 212.30078125 C-30.85871235 215.40935546 -31.82061618 217.20956131 -33.8125 219.5703125 C-36.82277985 221.91164128 -40.09295791 221.98851285 -43.84765625 221.890625 C-47.74888935 221.25463869 -49.89610383 218.83581197 -52.125 215.7578125 C-53.16129653 212.46050536 -53.22781753 210.01151486 -52.8125 206.5703125 C-51.02773759 203.59792009 -48.96041945 201.14427223 -45.8125 199.5703125 C-44.80703125 199.58771484 -44.80703125 199.58771484 -43.78125 199.60546875 C-37.71419803 199.67266711 -34.65852529 198.13816893 -30.25 193.9453125 C-26.22629008 189.86510744 -25.45411489 187.19322213 -24.8125 181.5703125 C-25.84656982 181.59649658 -26.88063965 181.62268066 -27.94604492 181.6496582 C-31.79429359 181.74037673 -35.6424484 181.79763909 -39.49145508 181.8449707 C-41.15502839 181.87006597 -42.81849196 181.90415046 -44.48168945 181.94750977 C-46.87739153 182.0083871 -49.27163251 182.03657019 -51.66796875 182.05859375 C-52.77763252 182.09730339 -52.77763252 182.09730339 -53.90971375 182.13679504 C-57.66511582 182.1388201 -59.66296286 181.67180164 -62.79101562 179.54882812 C-65.34513077 175.78551837 -65.45389057 172.81486526 -65.30078125 168.42578125 C-65.29370651 167.65599442 -65.28663177 166.88620758 -65.27934265 166.09309387 C-65.25146925 163.64698947 -65.18875137 161.20321866 -65.125 158.7578125 C-65.09990768 157.09443423 -65.07709613 155.43101988 -65.05664062 153.76757812 C-65.00166671 149.70093093 -64.91544927 145.63601661 -64.8125 141.5703125 C-66.07578125 141.86220459 -67.3390625 142.15409668 -68.640625 142.45483398 C-69.3512207 142.61902328 -70.06181641 142.78321259 -70.79394531 142.95237732 C-75.65409426 144.44020276 -79.03099973 148.48696849 -81.8125 152.5703125 C-82.28891317 155.06946293 -82.21740579 157.04344276 -81.9453125 159.5625 C-81.74190293 162.63757408 -82.90041423 164.24849407 -84.8125 166.5703125 C-87.41186281 169.36222071 -88.82109908 169.57142206 -92.6875 170.0703125 C-97.45489584 169.90991414 -99.54929498 167.91310789 -102.8125 164.5703125 C-104.54748116 161.10035018 -104.42044181 157.35524055 -103.8125 153.5703125 C-101.375 150.5703125 -101.375 150.5703125 -98.8125 148.5703125 C-98.4825 148.2403125 -98.1525 147.9103125 -97.8125 147.5703125 C-97.19761719 147.67730469 -96.58273438 147.78429687 -95.94921875 147.89453125 C-92.31843026 148.43306926 -89.3444318 148.68631145 -86.24609375 146.42919922 C-84.03342588 144.40205295 -82.0006281 142.26101486 -80.01245117 140.0144043 C-77.15958511 136.79348898 -75.0184019 134.68816018 -70.8125 133.5703125 C-67.5 133.4453125 -67.5 133.4453125 -64.8125 133.5703125 C-64.8125 129.9403125 -64.8125 126.3103125 -64.8125 122.5703125 C-69.43982325 122.58973903 -74.06524622 122.64146907 -78.69189453 122.72290039 C-80.26503133 122.74606811 -81.83832296 122.76047329 -83.41162109 122.76586914 C-85.67643572 122.77516876 -87.93881967 122.81617228 -90.203125 122.86328125 C-90.90431458 122.8593486 -91.60550415 122.85541595 -92.32794189 122.85136414 C-96.11236254 122.96393181 -97.51338611 123.25451559 -100.16308594 126.05200195 C-100.70739258 126.88304443 -101.25169922 127.71408691 -101.8125 128.5703125 C-105.27500243 130.30156371 -109.02658229 130.04846474 -112.8125 129.5703125 C-116.28735838 127.50018411 -118.55602278 125.45396938 -119.8125 121.5703125 C-120.33305293 117.57940669 -119.98246586 115.87507887 -118 112.3203125 C-115.83186104 109.59465209 -114.27533303 107.83501562 -110.76171875 107.19921875 C-106.48739639 107.07372051 -103.6596787 107.19321469 -100.25 109.9453125 C-97.8125 112.5703125 -97.8125 112.5703125 -97.8125 114.5703125 C-86.9225 114.5703125 -76.0325 114.5703125 -64.8125 114.5703125 C-64.8125 110.6103125 -64.8125 106.6503125 -64.8125 102.5703125 C-66.7925 102.786875 -66.7925 102.786875 -68.8125 103.0078125 C-74.03689903 103.01600121 -76.27177619 101.05846909 -79.91796875 97.52734375 C-81.12976519 96.27557052 -82.34077916 95.02303903 -83.55078125 93.76953125 C-86.79613752 90.54582422 -86.79613752 90.54582422 -91.07421875 89.375 C-92.62595934 89.46220526 -94.17693579 89.56459511 -95.7265625 89.68359375 C-97.8125 89.5703125 -97.8125 89.5703125 -100.8125 87.1953125 C-103.79378977 83.28236968 -104.28927914 80.7516911 -104.2109375 75.90234375 C-103.63214785 72.51472198 -102.31571725 70.80397509 -99.72265625 68.609375 C-96.11965825 66.64946198 -92.74965977 66.60711449 -88.8125 67.5703125 C-85.7515303 69.31123901 -83.41246696 71.37037858 -81.8125 74.5703125 C-81.97355953 76.09174986 -82.14119656 77.61249446 -82.3125 79.1328125 C-82.36843194 83.94995106 -81.10581722 86.0909003 -77.8125 89.5703125 C-74.88210733 92.41930538 -72.5628547 93.77507728 -68.640625 94.68359375 C-67.37734375 94.97621094 -66.1140625 95.26882812 -64.8125 95.5703125 C-64.83868408 94.53624268 -64.86486816 93.50217285 -64.8918457 92.43676758 C-64.98256423 88.58851891 -65.03982659 84.7403641 -65.0871582 80.89135742 C-65.11225347 79.22778411 -65.14633796 77.56432054 -65.18969727 75.90112305 C-65.2505746 73.50542097 -65.27875769 71.11117999 -65.30078125 68.71484375 C-65.32658768 67.9750679 -65.3523941 67.23529205 -65.37898254 66.47309875 C-65.3810076 62.71769668 -64.91398914 60.71984964 -62.79101562 57.59179688 C-59.02770587 55.03768173 -56.05705276 54.92892193 -51.66796875 55.08203125 C-50.5132885 55.09264336 -50.5132885 55.09264336 -49.33528137 55.10346985 C-46.88917697 55.13134325 -44.44540616 55.19406113 -42 55.2578125 C-40.33662173 55.28290482 -38.67320738 55.30571637 -37.00976562 55.32617188 C-32.94311843 55.38114579 -28.87820411 55.46736323 -24.8125 55.5703125 C-25.63866981 48.33002198 -27.75881934 45.56531985 -32.98046875 40.59765625 C-36.63507996 37.98145871 -39.15842987 37.77280518 -43.54296875 37.73828125 C-46.08457021 37.55017649 -47.31765645 37.04826097 -49.375 35.5703125 C-52.14664544 32.15905657 -52.83888828 30.10504697 -53.0546875 25.7890625 C-52.66889279 22.25468516 -51.11600467 20.19374838 -48.8125 17.5703125 C-45.10611264 15.09938759 -42.11080496 15.01623413 -37.8125 15.5703125 C-34.22697119 17.20718435 -33.01934945 18.26003833 -30.8125 21.5703125 C-30.76759079 23.25721481 -30.77366137 24.9457595 -30.8125 26.6328125 C-30.37937136 33.28885064 -26.98054389 36.20410382 -22.16015625 40.4765625 C-19.50415682 42.84530741 -17.9030132 44.4207948 -17.6171875 48.05078125 C-17.68229167 50.55729167 -17.74739583 53.06380208 -17.8125 55.5703125 C-13.8525 55.5703125 -9.8925 55.5703125 -5.8125 55.5703125 C-5.8125 44.3503125 -5.8125 33.1303125 -5.8125 21.5703125 C-7.1325 20.9103125 -8.4525 20.2503125 -9.8125 19.5703125 C-12.54330808 17.03456214 -12.82163937 15.50836791 -13.375 11.7578125 C-13.18351537 7.50525805 -11.65944711 4.89423434 -8.72265625 1.8671875 C-5.81228745 -0.10876842 -3.45616569 -0.26855342 0 0 Z " fill="#F0F0F2" transform="translate(150.8125,21.4296875)"/>
<path d="M0 0 C3.71168084 0.96768822 5.55692692 2.80821076 8.1875 5.5703125 C9.80210384 8.79952019 9.78218691 12.07975889 9.1875 15.5703125 C7.77119249 18.08584374 6.31866783 19.54062885 4.1875 21.5703125 C3.5275 21.5703125 2.8675 21.5703125 2.1875 21.5703125 C2.1875 32.7903125 2.1875 44.0103125 2.1875 55.5703125 C6.1475 55.5703125 10.1075 55.5703125 14.1875 55.5703125 C14.001875 54.1265625 13.81625 52.6828125 13.625 51.1953125 C13.58160508 46.11087379 15.11220209 43.85500471 18.5 40.1328125 C20.59210691 38.03396772 22.66435774 35.99875793 24.95703125 34.12109375 C26.74410307 31.86881593 26.52365417 30.03105786 26.5625 27.1953125 C26.82270518 23.00988456 26.95218652 21.87199644 29.625 18.4453125 C33.71904873 15.44966709 36.07479399 15.14425367 41.1875 15.5703125 C45.19341167 17.68664319 47.54273273 19.34642661 49.1875 23.5703125 C49.60826681 28.4704926 48.86137466 31.7409283 45.75 35.5703125 C42.93406922 37.59321265 40.85472199 37.73090524 37.4375 37.7578125 C31.26995175 38.06665786 28.29536923 41.50149034 24.12109375 45.734375 C21.83912726 49.08125918 21.6411784 51.59441872 21.1875 55.5703125 C22.22156982 55.54412842 23.25563965 55.51794434 24.32104492 55.4909668 C28.16929359 55.40024827 32.0174484 55.34298591 35.86645508 55.2956543 C37.53002839 55.27055903 39.19349196 55.23647454 40.85668945 55.19311523 C43.25239153 55.1322379 45.64663251 55.10405481 48.04296875 55.08203125 C49.15263252 55.04332161 49.15263252 55.04332161 50.28471375 55.00382996 C54.04011582 55.0018049 56.03796286 55.46882336 59.16601562 57.59179688 C61.72013077 61.35510663 61.82889057 64.32575974 61.67578125 68.71484375 C61.66516914 69.869524 61.66516914 69.869524 61.65434265 71.04753113 C61.62646925 73.49363553 61.56375137 75.93740634 61.5 78.3828125 C61.47490768 80.04619077 61.45209613 81.70960512 61.43164062 83.37304688 C61.37666671 87.43969407 61.29044927 91.50460839 61.1875 95.5703125 C63.08242188 95.13138672 63.08242188 95.13138672 65.015625 94.68359375 C65.7262207 94.51899658 66.43681641 94.35439941 67.16894531 94.18481445 C72.05313127 92.69793781 75.44752972 88.71168959 78.1875 84.5703125 C78.59326265 81.86387562 78.45873006 79.58932304 78.1796875 76.875 C78.18911071 74.09515322 78.79879693 73.11417788 80.5625 71.0078125 C84.05296412 67.76666725 86.18671069 67.08366644 91.01171875 67.171875 C94.39681752 67.79176741 96.44730077 69.29465251 98.8984375 71.65625 C100.87055237 74.58454177 100.90798847 76.99840951 100.6171875 80.453125 C100.02350915 83.37834014 99.11964074 85.29314663 97.1875 87.5703125 C94.15829699 89.47073881 92.58391371 89.62201213 89.125 89.0078125 C85.39453909 88.87238323 84.30778624 89.47068484 81.3671875 91.90625 C79.44461406 93.83207158 77.66683631 95.82706469 75.86328125 97.87109375 C72.18644972 101.5801311 69.05224505 103.46671555 63.8125 103.7578125 C62.94625 103.6959375 62.08 103.6340625 61.1875 103.5703125 C61.1875 107.2003125 61.1875 110.8303125 61.1875 114.5703125 C72.0775 114.5703125 82.9675 114.5703125 94.1875 114.5703125 C95.1775 112.5903125 95.1775 112.5903125 96.1875 110.5703125 C98.80815805 107.74806536 100.2076506 107.5683934 104.125 107.1953125 C107.8595415 107.34135602 110.21278159 108.20803612 113.1875 110.5703125 C115.88407104 114.61516907 115.7297677 117.82338446 115.1875 122.5703125 C113.9546112 125.46760118 112.9629988 126.96714677 110.5 128.8828125 C107.03517407 129.91289588 103.73633321 130.1617847 100.1875 129.5703125 C97.3774654 127.77667339 95.67809532 126.55150315 94.1875 123.5703125 C83.2975 123.2403125 72.4075 122.9103125 61.1875 122.5703125 C61.1875 126.5303125 61.1875 130.4903125 61.1875 134.5703125 C62.38375 134.4878125 63.58 134.4053125 64.8125 134.3203125 C69.41490565 134.36061378 71.59609602 135.56526019 75.1875 138.5703125 C75.86554688 139.31925781 76.54359375 140.06820312 77.2421875 140.83984375 C81.20026769 145.57431746 81.20026769 145.57431746 86.58984375 148.046875 C88.12144333 147.98061612 89.65193197 147.86676239 91.17578125 147.69921875 C94.22523899 147.5038166 95.88182002 148.68384706 98.1875 150.5703125 C100.86871076 154.59212865 101.00094335 157.84267641 100.1875 162.5703125 C98.47672026 165.6420843 96.37778693 167.97516904 93.1875 169.5703125 C88.25371607 170.06369089 86.11830765 170.09494954 81.75 167.6328125 C78.80001722 164.10722333 78.45518951 162.21111468 78.29296875 157.75390625 C78.06777177 153.0914948 76.89792904 150.81431578 73.625 147.4453125 C72.98433594 146.76210937 72.34367188 146.07890625 71.68359375 145.375 C69.24940499 143.6150701 67.88519145 143.11616266 65.03149414 142.45751953 C63.76297607 142.16474121 62.49445801 141.87196289 61.1875 141.5703125 C61.22677612 143.12141724 61.22677612 143.12141724 61.2668457 144.70385742 C61.35756423 148.55210609 61.41482659 152.4002609 61.4621582 156.24926758 C61.48725347 157.91284089 61.52133796 159.57630446 61.56469727 161.23950195 C61.6255746 163.63520403 61.65375769 166.02944501 61.67578125 168.42578125 C61.70158768 169.1655571 61.7273941 169.90533295 61.75398254 170.66752625 C61.7560076 174.42292832 61.28898914 176.42077536 59.16601562 179.54882812 C55.40270587 182.10294327 52.43205276 182.21170307 48.04296875 182.05859375 C47.27318192 182.05151901 46.50339508 182.04444427 45.71028137 182.03715515 C43.26417697 182.00928175 40.82040616 181.94656387 38.375 181.8828125 C36.71162173 181.85772018 35.04820738 181.83490863 33.38476562 181.81445312 C29.31811843 181.75947921 25.25320411 181.67326177 21.1875 181.5703125 C22.01366981 188.81060302 24.13381934 191.57530515 29.35546875 196.54296875 C33.00854546 199.1580678 35.52998005 199.38882044 39.91796875 199.375 C43.82722349 199.71142468 45.54947331 201.79700239 48.1875 204.5703125 C49.7422669 207.67984629 49.47394437 210.13298011 49.1875 213.5703125 C47.5593054 216.65225228 46.15740938 218.83451917 43.375 220.9453125 C39.06400795 222.17702451 35.47915372 222.14438082 31.375 220.3203125 C29.0222483 218.43811114 28.28252543 217.33512783 27.1875 214.5703125 C27.14424219 213.02925284 27.14733991 211.486456 27.1875 209.9453125 C26.73250724 203.66826947 23.064746 200.79855573 18.53515625 196.796875 C15.62498093 194.03680856 14.32381977 192.21705534 13.9921875 188.2109375 C14.05729167 185.99739583 14.12239583 183.78385417 14.1875 181.5703125 C10.2275 181.5703125 6.2675 181.5703125 2.1875 181.5703125 C2.1875 192.7903125 2.1875 204.0103125 2.1875 215.5703125 C4.1675 216.5603125 4.1675 216.5603125 6.1875 217.5703125 C8.95676565 220.14177346 9.19457243 221.62512383 9.6875 225.4453125 C9.52710164 230.21270834 7.53029539 232.30710748 4.1875 235.5703125 C0.95890153 237.18461173 -2.32243653 237.16601907 -5.8125 236.5703125 C-8.83758145 234.83429145 -11.23040069 232.73451113 -12.8125 229.5703125 C-13.29081743 224.78713817 -13.52894478 221.88915605 -10.4375 218.0703125 C-7.8125 215.5703125 -7.8125 215.5703125 -5.8125 215.5703125 C-5.8125 204.3503125 -5.8125 193.1303125 -5.8125 181.5703125 C-9.7725 181.5703125 -13.7325 181.5703125 -17.8125 181.5703125 C-17.73 182.9315625 -17.6475 184.2928125 -17.5625 185.6953125 C-17.59256427 190.51311233 -18.62886884 192.82954589 -21.8125 196.5703125 C-22.47636719 197.16199219 -23.14023438 197.75367188 -23.82421875 198.36328125 C-27.85495151 201.98876978 -30.24400176 204.18364266 -30.625 209.7578125 C-30.645625 210.59699219 -30.66625 211.43617188 -30.6875 212.30078125 C-30.85871235 215.40935546 -31.82061618 217.20956131 -33.8125 219.5703125 C-36.82277985 221.91164128 -40.09295791 221.98851285 -43.84765625 221.890625 C-47.74888935 221.25463869 -49.89610383 218.83581197 -52.125 215.7578125 C-53.16129653 212.46050536 -53.22781753 210.01151486 -52.8125 206.5703125 C-51.02773759 203.59792009 -48.96041945 201.14427223 -45.8125 199.5703125 C-44.80703125 199.58771484 -44.80703125 199.58771484 -43.78125 199.60546875 C-37.71419803 199.67266711 -34.65852529 198.13816893 -30.25 193.9453125 C-26.22629008 189.86510744 -25.45411489 187.19322213 -24.8125 181.5703125 C-25.84656982 181.59649658 -26.88063965 181.62268066 -27.94604492 181.6496582 C-31.79429359 181.74037673 -35.6424484 181.79763909 -39.49145508 181.8449707 C-41.15502839 181.87006597 -42.81849196 181.90415046 -44.48168945 181.94750977 C-46.87739153 182.0083871 -49.27163251 182.03657019 -51.66796875 182.05859375 C-52.77763252 182.09730339 -52.77763252 182.09730339 -53.90971375 182.13679504 C-57.66511582 182.1388201 -59.66296286 181.67180164 -62.79101562 179.54882812 C-65.34513077 175.78551837 -65.45389057 172.81486526 -65.30078125 168.42578125 C-65.29370651 167.65599442 -65.28663177 166.88620758 -65.27934265 166.09309387 C-65.25146925 163.64698947 -65.18875137 161.20321866 -65.125 158.7578125 C-65.09990768 157.09443423 -65.07709613 155.43101988 -65.05664062 153.76757812 C-65.00166671 149.70093093 -64.91544927 145.63601661 -64.8125 141.5703125 C-66.07578125 141.86220459 -67.3390625 142.15409668 -68.640625 142.45483398 C-69.3512207 142.61902328 -70.06181641 142.78321259 -70.79394531 142.95237732 C-75.65409426 144.44020276 -79.03099973 148.48696849 -81.8125 152.5703125 C-82.28891317 155.06946293 -82.21740579 157.04344276 -81.9453125 159.5625 C-81.74190293 162.63757408 -82.90041423 164.24849407 -84.8125 166.5703125 C-87.41186281 169.36222071 -88.82109908 169.57142206 -92.6875 170.0703125 C-97.45489584 169.90991414 -99.54929498 167.91310789 -102.8125 164.5703125 C-104.54748116 161.10035018 -104.42044181 157.35524055 -103.8125 153.5703125 C-101.375 150.5703125 -101.375 150.5703125 -98.8125 148.5703125 C-98.4825 148.2403125 -98.1525 147.9103125 -97.8125 147.5703125 C-97.19761719 147.67730469 -96.58273438 147.78429687 -95.94921875 147.89453125 C-92.31843026 148.43306926 -89.3444318 148.68631145 -86.24609375 146.42919922 C-84.03342588 144.40205295 -82.0006281 142.26101486 -80.01245117 140.0144043 C-77.15958511 136.79348898 -75.0184019 134.68816018 -70.8125 133.5703125 C-67.5 133.4453125 -67.5 133.4453125 -64.8125 133.5703125 C-64.8125 129.9403125 -64.8125 126.3103125 -64.8125 122.5703125 C-69.43982325 122.58973903 -74.06524622 122.64146907 -78.69189453 122.72290039 C-80.26503133 122.74606811 -81.83832296 122.76047329 -83.41162109 122.76586914 C-85.67643572 122.77516876 -87.93881967 122.81617228 -90.203125 122.86328125 C-90.90431458 122.8593486 -91.60550415 122.85541595 -92.32794189 122.85136414 C-96.11236254 122.96393181 -97.51338611 123.25451559 -100.16308594 126.05200195 C-100.70739258 126.88304443 -101.25169922 127.71408691 -101.8125 128.5703125 C-105.27500243 130.30156371 -109.02658229 130.04846474 -112.8125 129.5703125 C-116.28735838 127.50018411 -118.55602278 125.45396938 -119.8125 121.5703125 C-120.33305293 117.57940669 -119.98246586 115.87507887 -118 112.3203125 C-115.83186104 109.59465209 -114.27533303 107.83501562 -110.76171875 107.19921875 C-106.48739639 107.07372051 -103.6596787 107.19321469 -100.25 109.9453125 C-97.8125 112.5703125 -97.8125 112.5703125 -97.8125 114.5703125 C-86.9225 114.5703125 -76.0325 114.5703125 -64.8125 114.5703125 C-64.8125 110.6103125 -64.8125 106.6503125 -64.8125 102.5703125 C-66.7925 102.786875 -66.7925 102.786875 -68.8125 103.0078125 C-74.03689903 103.01600121 -76.27177619 101.05846909 -79.91796875 97.52734375 C-81.12976519 96.27557052 -82.34077916 95.02303903 -83.55078125 93.76953125 C-86.79613752 90.54582422 -86.79613752 90.54582422 -91.07421875 89.375 C-92.62595934 89.46220526 -94.17693579 89.56459511 -95.7265625 89.68359375 C-97.8125 89.5703125 -97.8125 89.5703125 -100.8125 87.1953125 C-103.79378977 83.28236968 -104.28927914 80.7516911 -104.2109375 75.90234375 C-103.63214785 72.51472198 -102.31571725 70.80397509 -99.72265625 68.609375 C-96.11965825 66.64946198 -92.74965977 66.60711449 -88.8125 67.5703125 C-85.7515303 69.31123901 -83.41246696 71.37037858 -81.8125 74.5703125 C-81.97355953 76.09174986 -82.14119656 77.61249446 -82.3125 79.1328125 C-82.36843194 83.94995106 -81.10581722 86.0909003 -77.8125 89.5703125 C-74.88210733 92.41930538 -72.5628547 93.77507728 -68.640625 94.68359375 C-67.37734375 94.97621094 -66.1140625 95.26882812 -64.8125 95.5703125 C-64.83868408 94.53624268 -64.86486816 93.50217285 -64.8918457 92.43676758 C-64.98256423 88.58851891 -65.03982659 84.7403641 -65.0871582 80.89135742 C-65.11225347 79.22778411 -65.14633796 77.56432054 -65.18969727 75.90112305 C-65.2505746 73.50542097 -65.27875769 71.11117999 -65.30078125 68.71484375 C-65.32658768 67.9750679 -65.3523941 67.23529205 -65.37898254 66.47309875 C-65.3810076 62.71769668 -64.91398914 60.71984964 -62.79101562 57.59179688 C-59.02770587 55.03768173 -56.05705276 54.92892193 -51.66796875 55.08203125 C-50.5132885 55.09264336 -50.5132885 55.09264336 -49.33528137 55.10346985 C-46.88917697 55.13134325 -44.44540616 55.19406113 -42 55.2578125 C-40.33662173 55.28290482 -38.67320738 55.30571637 -37.00976562 55.32617188 C-32.94311843 55.38114579 -28.87820411 55.46736323 -24.8125 55.5703125 C-25.63866981 48.33002198 -27.75881934 45.56531985 -32.98046875 40.59765625 C-36.63507996 37.98145871 -39.15842987 37.77280518 -43.54296875 37.73828125 C-46.08457021 37.55017649 -47.31765645 37.04826097 -49.375 35.5703125 C-52.14664544 32.15905657 -52.83888828 30.10504697 -53.0546875 25.7890625 C-52.66889279 22.25468516 -51.11600467 20.19374838 -48.8125 17.5703125 C-45.10611264 15.09938759 -42.11080496 15.01623413 -37.8125 15.5703125 C-34.22697119 17.20718435 -33.01934945 18.26003833 -30.8125 21.5703125 C-30.76759079 23.25721481 -30.77366137 24.9457595 -30.8125 26.6328125 C-30.37937136 33.28885064 -26.98054389 36.20410382 -22.16015625 40.4765625 C-19.50415682 42.84530741 -17.9030132 44.4207948 -17.6171875 48.05078125 C-17.68229167 50.55729167 -17.74739583 53.06380208 -17.8125 55.5703125 C-13.8525 55.5703125 -9.8925 55.5703125 -5.8125 55.5703125 C-5.8125 44.3503125 -5.8125 33.1303125 -5.8125 21.5703125 C-7.1325 20.9103125 -8.4525 20.2503125 -9.8125 19.5703125 C-12.54330808 17.03456214 -12.82163937 15.50836791 -13.375 11.7578125 C-13.18351537 7.50525805 -11.65944711 4.89423434 -8.72265625 1.8671875 C-5.81228745 -0.10876842 -3.45616569 -0.26855342 0 0 Z M-56.8125 62.5703125 C-56.8125 99.5303125 -56.8125 136.4903125 -56.8125 174.5703125 C-20.5125 174.5703125 15.7875 174.5703125 53.1875 174.5703125 C53.1875 137.6103125 53.1875 100.6503125 53.1875 62.5703125 C16.8875 62.5703125 -19.4125 62.5703125 -56.8125 62.5703125 Z " fill="#080808" transform="translate(150.8125,21.4296875)"/>
<path d="M0 0 C7.01114892 3.20031376 9.5738357 9.62971824 13.0625 16.1875 C13.66126953 17.28642578 14.26003906 18.38535156 14.87695312 19.51757812 C16.04764425 21.66790564 17.21271216 23.82130604 18.37158203 25.97802734 C20.54260135 30.00694445 22.76468543 34.00648626 25 38 C25.00410889 37.09233887 25.00821777 36.18467773 25.01245117 35.24951172 C25.03952653 31.86054374 25.08870578 28.47335887 25.15258789 25.08496094 C25.17569115 23.62250818 25.19014558 22.15989085 25.19555664 20.69726562 C25.20490398 18.58620576 25.24600821 16.47770634 25.29296875 14.3671875 C25.31653442 12.46622314 25.31653442 12.46622314 25.34057617 10.52685547 C26.2010134 5.92490203 27.73236149 4.29453138 31 1 C33.35725473 -0.17862736 34.63327579 -0.14240676 37.25 0 C37.99765625 0.020625 38.7453125 0.04125 39.515625 0.0625 C43.53416832 1.57893144 45.83144248 4.33950062 48 8 C48.82914376 11.59939546 48.7962381 15.07288996 48.7265625 18.75390625 C48.72805801 20.28252541 48.72805801 20.28252541 48.72958374 21.84202576 C48.72491997 23.98778112 48.70556693 26.13354922 48.67236328 28.27905273 C48.62509125 31.55617398 48.63126152 34.83004519 48.64453125 38.10742188 C48.63337864 40.19793598 48.61915945 42.28843645 48.6015625 44.37890625 C48.60429672 45.84161705 48.60429672 45.84161705 48.60708618 47.33387756 C48.48871509 53.0334175 47.90048503 56.53477293 44 61 C40.89013793 63.07324138 40.10891613 63.27392186 36.5625 63.25 C35.80066406 63.25515625 35.03882813 63.2603125 34.25390625 63.265625 C32 63 32 63 29.86328125 61.8984375 C29.24839844 61.60195312 28.63351563 61.30546875 28 61 C26.31791365 61.97383946 24.65261839 62.97695052 23 64 C19.88727403 64.6090116 18.00744186 64.58972206 15.23828125 62.96875 C10.36313856 59.16169714 7.65764448 54.51124431 5 49 C4.236875 49.804375 3.47375 50.60875 2.6875 51.4375 C-1.14695131 55.09360474 -3.79224317 55.05441036 -8.875 55.1875 C-13.11847839 55.41127026 -13.11847839 55.41127026 -16.7578125 57.328125 C-17.91601609 58.82869066 -18.96353097 60.4129068 -20 62 C-23.25415394 64.30939957 -26.06845119 64.55041683 -30 64 C-32.92483867 62.17452064 -35.43429205 60.13141589 -37 57 C-38.14208034 48.15340944 -34.52695954 42.44516619 -30.125 35 C-29.43419192 33.80222496 -28.74491156 32.60356758 -28.05712891 31.40405273 C-26.69004131 29.02713103 -25.31201936 26.65713591 -23.92382812 24.29248047 C-22.23886632 21.40880091 -20.58707203 18.51041692 -18.953125 15.59765625 C-18.09473034 14.08538062 -17.23543867 12.57361359 -16.375 11.0625 C-15.99875488 10.39025391 -15.62250977 9.71800781 -15.23486328 9.02539062 C-11.39796956 2.43800455 -7.87955861 -1.10590296 0 0 Z " fill="#080808" transform="translate(144,108)"/>
<path d="M0 0 C2.42504883 0.08032227 2.42504883 0.08032227 5 1 C6.6940918 3.03100586 6.6940918 3.03100586 8.19921875 5.71484375 C8.76439209 6.70315186 9.32956543 7.69145996 9.91186523 8.7097168 C10.79080444 10.30746948 10.79080444 10.30746948 11.6875 11.9375 C12.29601807 13.01749268 12.90453613 14.09748535 13.53149414 15.21020508 C14.77050545 17.41309071 16.00286158 19.61973284 17.22851562 21.83007812 C18.8414416 24.71627312 20.49418079 27.57300062 22.171875 30.421875 C23.09422214 32.01014258 24.01612787 33.59866661 24.9375 35.1875 C25.36828857 35.90993896 25.79907715 36.63237793 26.24291992 37.37670898 C27.98885692 40.45057279 29.04869074 42.40875533 28.75390625 45.98828125 C28.50511719 46.65214844 28.25632813 47.31601563 28 48 C25.79296875 48.4609375 25.79296875 48.4609375 23 48 C21.14848293 45.54168321 19.75023418 43.31452921 18.3125 40.625 C17.8911377 39.8714624 17.46977539 39.1179248 17.03564453 38.34155273 C16.1405754 36.73621895 15.25376673 35.12625658 14.37451172 33.51220703 C12.98423177 30.97118027 11.56150239 28.45097407 10.12890625 25.93359375 C9.21008863 24.31037604 8.29209528 22.68669143 7.375 21.0625 C6.93712158 20.28793457 6.49924316 19.51336914 6.0480957 18.71533203 C3 13.23305718 3 13.23305718 3 11 C2.34 11 1.68 11 1 11 C0.75507813 11.83789062 0.51015625 12.67578125 0.2578125 13.5390625 C-1.161461 17.44426847 -3.01857766 20.80971271 -5.125 24.375 C-5.49753906 25.01566406 -5.87007812 25.65632813 -6.25390625 26.31640625 C-7.16434002 27.88048477 -8.08148191 29.44065534 -9 31 C-7.95199219 31.07347656 -7.95199219 31.07347656 -6.8828125 31.1484375 C-5.97273438 31.22320312 -5.06265625 31.29796875 -4.125 31.375 C-3.22007812 31.44460937 -2.31515625 31.51421875 -1.3828125 31.5859375 C1 32 1 32 3 34 C2.44444444 38.55555556 2.44444444 38.55555556 1 40 C-0.85857173 40.03780146 -2.7172815 40.07250124 -4.57617188 40.08813477 C-11.19606793 39.9449571 -11.19606793 39.9449571 -16.94921875 42.62109375 C-18.18124077 44.73395938 -18.18124077 44.73395938 -19 48 C-20.65 48 -22.3 48 -24 48 C-24.80970052 45.17602908 -25.18509741 43.52007261 -24.18652344 40.71435547 C-23.52958496 39.55250732 -23.52958496 39.55250732 -22.859375 38.3671875 C-22.37065918 37.48708008 -21.88194336 36.60697266 -21.37841797 35.70019531 C-20.84104004 34.76788086 -20.30366211 33.83556641 -19.75 32.875 C-18.93813232 31.43012207 -18.93813232 31.43012207 -18.10986328 29.95605469 C-16.42145788 26.96196874 -14.71224595 23.98050368 -13 21 C-11.93966193 19.1330636 -10.87974926 17.26588552 -9.8203125 15.3984375 C-7.94854668 12.12011081 -6.07575434 8.84246548 -4.1796875 5.578125 C-3.61870361 4.60987793 -3.61870361 4.60987793 -3.04638672 3.62207031 C-2 2 -2 2 0 0 Z " fill="#E9E9EB" transform="translate(139,116)"/>
<path d="M0 0 C2.5 0.125 2.5 0.125 3.5 1.125 C3.59295815 2.56789787 3.61746513 4.01529785 3.61352539 5.46118164 C3.61344986 6.3820607 3.61337433 7.30293976 3.61329651 8.25172424 C3.60813522 9.25275681 3.60297394 10.25378937 3.59765625 11.28515625 C3.5962413 12.30475937 3.59482635 13.32436249 3.59336853 14.37486267 C3.58775097 17.64577107 3.5751955 20.91661213 3.5625 24.1875 C3.55748726 26.39908756 3.55292396 28.61067618 3.54882812 30.82226562 C3.53777584 36.25653357 3.52102063 41.69076197 3.5 47.125 C1.125 47.75 1.125 47.75 -1.5 48.125 C-3.5 46.125 -3.5 46.125 -3.74723816 44.18284607 C-3.74581314 43.39088333 -3.74438812 42.59892059 -3.74291992 41.78295898 C-3.74599655 40.8854039 -3.74907318 39.98784882 -3.75224304 39.06309509 C-3.74505753 38.09223465 -3.73787201 37.12137421 -3.73046875 36.12109375 C-3.73001053 35.1274733 -3.72955231 34.13385284 -3.7290802 33.11012268 C-3.72605609 31.00772916 -3.7181651 28.90533791 -3.70581055 26.80297852 C-3.68755565 23.57234831 -3.6853008 20.34200451 -3.68554688 17.11132812 C-3.6806318 15.07291417 -3.67480353 13.03450217 -3.66796875 10.99609375 C-3.66685593 10.02320908 -3.6657431 9.0503244 -3.66459656 8.04795837 C-3.65821671 7.15355545 -3.65183685 6.25915253 -3.64526367 5.33764648 C-3.64145187 4.54647934 -3.63764008 3.75531219 -3.63371277 2.94017029 C-3.42152037 0.05962761 -2.89402023 0.14470101 0 0 Z " fill="#F2F2F4" transform="translate(180.5,115.875)"/>
<path d="M0 0 C2.625 0.375 2.625 0.375 5 1 C5.625 3.375 5.625 3.375 6 6 C5.34 6.66 4.68 7.32 4 8 C1.375 7.625 1.375 7.625 -1 7 C-1.625 4.625 -1.625 4.625 -2 2 C-1.34 1.34 -0.68 0.68 0 0 Z " fill="#D8D8DA" transform="translate(147,243)"/>
<path d="M0 0 C2.625 0.375 2.625 0.375 5 1 C5.625 3.375 5.625 3.375 6 6 C5.34 6.66 4.68 7.32 4 8 C1.375 7.625 1.375 7.625 -1 7 C-1.625 4.625 -1.625 4.625 -2 2 C-1.34 1.34 -0.68 0.68 0 0 Z " fill="#D9D9DB" transform="translate(238,176)"/>
<path d="M0 0 C2.625 0.375 2.625 0.375 5 1 C5.625 3.375 5.625 3.375 6 6 C5.34 6.66 4.68 7.32 4 8 C1.375 7.625 1.375 7.625 -1 7 C-1.625 4.625 -1.625 4.625 -2 2 C-1.34 1.34 -0.68 0.68 0 0 Z " fill="#DADADC" transform="translate(56,176)"/>
<path d="M0 0 C2.625 0.375 2.625 0.375 5 1 C5.625 3.375 5.625 3.375 6 6 C5.34 6.66 4.68 7.32 4 8 C1.375 7.625 1.375 7.625 -1 7 C-1.625 4.625 -1.625 4.625 -2 2 C-1.34 1.34 -0.68 0.68 0 0 Z " fill="#DDDDDF" transform="translate(253,136)"/>
<path d="M0 0 C2.625 0.375 2.625 0.375 5 1 C5.625 3.375 5.625 3.375 6 6 C5.34 6.66 4.68 7.32 4 8 C1.375 7.625 1.375 7.625 -1 7 C-1.625 4.625 -1.625 4.625 -2 2 C-1.34 1.34 -0.68 0.68 0 0 Z " fill="#DADADC" transform="translate(238,96)"/>
<path d="M0 0 C2.625 0.375 2.625 0.375 5 1 C5.625 3.375 5.625 3.375 6 6 C5.34 6.66 4.68 7.32 4 8 C1.375 7.625 1.375 7.625 -1 7 C-1.625 4.625 -1.625 4.625 -2 2 C-1.34 1.34 -0.68 0.68 0 0 Z " fill="#DADADC" transform="translate(56,96)"/>
<path d="M0 0 C2.625 0.375 2.625 0.375 5 1 C5.625 3.375 5.625 3.375 6 6 C5.34 6.66 4.68 7.32 4 8 C1.375 7.625 1.375 7.625 -1 7 C-1.625 4.625 -1.625 4.625 -2 2 C-1.34 1.34 -0.68 0.68 0 0 Z " fill="#D8D8DA" transform="translate(147,29)"/>
<path d="M0 0 C1.67542976 0.28604898 3.34385343 0.61781233 5 1 C5 2.98 5 4.96 5 7 C2.625 7.625 2.625 7.625 0 8 C-0.66 7.34 -1.32 6.68 -2 6 C-1.44444444 1.44444444 -1.44444444 1.44444444 0 0 Z " fill="#E4E4E6" transform="translate(41,136)"/>
<path d="M0 0 C2.625 0.375 2.625 0.375 5 1 C5.125 3.375 5.125 3.375 5 6 C4.34 6.66 3.68 7.32 3 8 C0.875 7.625 0.875 7.625 -1 7 C-1.625 4.625 -1.625 4.625 -2 2 C-1.34 1.34 -0.68 0.68 0 0 Z " fill="#E8E8E9" transform="translate(187,228)"/>
<path d="M0 0 C1.67542976 0.28604898 3.34385343 0.61781233 5 1 C5.625 3.375 5.625 3.375 6 6 C5.34 6.66 4.68 7.32 4 8 C0.46428571 7.46428571 0.46428571 7.46428571 -1 6 C-1.125 3.5 -1.125 3.5 -1 1 C-0.67 0.67 -0.34 0.34 0 0 Z " fill="#E7E7E9" transform="translate(107,228)"/>
<path d="M0 0 C3.69230769 0.69230769 3.69230769 0.69230769 5 2 C5.04063832 3.66617115 5.042721 5.33388095 5 7 C2.625 7.625 2.625 7.625 0 8 C-0.66 7.34 -1.32 6.68 -2 6 C-1.44444444 1.44444444 -1.44444444 1.44444444 0 0 Z " fill="#E8E8E9" transform="translate(187,44)"/>
<path d="M0 0 C2.125 0.375 2.125 0.375 4 1 C4.625 3.375 4.625 3.375 5 6 C4.34 6.66 3.68 7.32 3 8 C0.375 7.625 0.375 7.625 -2 7 C-2.125 4.625 -2.125 4.625 -2 2 C-1.34 1.34 -0.68 0.68 0 0 Z " fill="#E7E7E9" transform="translate(108,44)"/>
</svg>
